<?xml version="1.0" encoding="utf-8"?>
<!-- Generator: Adobe Illustrator 27.6.0, SVG Export Plug-In . SVG Version: 6.00 Build 0)  -->
<svg version="1.1" id="Layer_1" xmlns="http://www.w3.org/2000/svg" xmlns:xlink="http://www.w3.org/1999/xlink" x="0px" y="0px"
	 viewBox="0 0 20 20" style="enable-background:new 0 0 20 20;" xml:space="preserve">
<style type="text/css">
	.st0{fill:#7843A5;}
</style>
<path class="st0" d="M6.5,9C6.1,9,5.9,9.3,5.9,9.6c0,0.3,0.3,0.6,0.6,0.6c0.3,0,0.6-0.3,0.6-0.6C7.1,9.3,6.8,9,6.5,9z M7,4.5H5.9
	c-0.8,0-1.4,0.6-1.4,1.4c0,0.3,0.2,0.5,0.5,0.5c0.3,0,0.5-0.2,0.5-0.5c0-0.2,0.2-0.4,0.4-0.4H7c0.3,0,0.5,0.2,0.5,0.5
	c0,0.2-0.1,0.3-0.3,0.4l-1,0.5C6.1,7,6,7.2,6,7.4V8c0,0.3,0.2,0.5,0.5,0.5C6.8,8.5,7,8.3,7,8V7.7l0.7-0.4C8.2,7.1,8.5,6.5,8.5,6
	C8.5,5.2,7.8,4.5,7,4.5z M13,7.5c0-3-2.9-5.5-6.5-5.5C2.9,2,0,4.5,0,7.5c0,1.3,0.5,2.5,1.4,3.4c-0.5,1-1.2,1.8-1.2,1.8
	C0,13-0.1,13.3,0.1,13.6C0.2,13.8,0.4,14,0.7,14c1.7,0,3.1-0.6,3.9-1.2C5.3,12.9,5.9,13,6.5,13C10.1,13,13,10.5,13,7.5z M6.5,12
	c-0.5,0-1.1-0.1-1.6-0.2l-0.4-0.1l-0.4,0.2c-0.6,0.4-1.6,0.9-2.8,1c0.3-0.4,0.7-1,1-1.6l0.3-0.6l-0.5-0.5C1.4,9.4,1,8.5,1,7.5
	C1,5,3.4,3,6.5,3C9.6,3,12,5,12,7.5S9.5,12,6.5,12z M19,15.6c0.7-0.9,1-2,1-3.1c0-3-2.7-5.5-6-5.5c0,0,0,0,0,0c0,0.2,0,0.3,0,0.5
	c0,0.2,0,0.3,0,0.5c0,0,0,0,0,0c2.8,0,5,2,5,4.5c0,0.9-0.3,1.8-0.9,2.5l-0.4,0.5l0.4,0.6c0.2,0.3,0.4,0.6,0.6,0.8
	c-0.6-0.1-1.1-0.2-1.7-0.4l-0.4-0.2l-0.4,0.2C15.5,16.8,14.8,17,14,17c-2.3,0-4.3-1.5-4.8-3.4c-0.3,0.1-0.6,0.2-1,0.3
	c0.6,2.4,3,4.2,5.8,4.2c0.9,0,1.8-0.2,2.6-0.5c0.7,0.3,1.6,0.5,2.7,0.5c0.3,0,0.6-0.2,0.7-0.4c0.1-0.3,0.1-0.6-0.1-0.8
	C19.8,16.7,19.4,16.3,19,15.6z M12.1,12.6c-0.2,0.2-0.2,0.5,0,0.7l1.2,1.2c0.1,0.1,0.2,0.1,0.4,0.1c0.1,0,0.3-0.1,0.4-0.1l2.6-2.6
	c0.2-0.2,0.2-0.5,0-0.7c-0.2-0.2-0.5-0.2-0.7,0l-2.2,2.2l-0.8-0.8C12.7,12.4,12.3,12.4,12.1,12.6z"/>
</svg>
