<?xml version="1.0" encoding="utf-8"?>
<!-- Generator: Adobe Illustrator 27.6.0, SVG Export Plug-In . SVG Version: 6.00 Build 0)  -->
<svg version="1.1" id="Layer_1" xmlns="http://www.w3.org/2000/svg" xmlns:xlink="http://www.w3.org/1999/xlink" x="0px" y="0px"
	 viewBox="0 0 20 20" style="enable-background:new 0 0 20 20;" xml:space="preserve">
<style type="text/css">
	.st0{fill:#7843A5;}
</style>
<g>
	<path class="st0" d="M9.5,13.2c0.4-0.4,0.6-1,0.4-1.6c-0.1-0.5-0.1-0.3,0-0.8c0.2-0.6,0-1.2-0.4-1.6C9.1,8.9,9.1,8.9,9,8.4
		c-0.1-0.6-0.6-1-1.1-1.2C7.4,7.1,7.4,7.1,7.1,6.7C6.6,6.3,6,6.2,5.5,6.3C5,6.4,5,6.4,4.5,6.3C4,6.2,3.4,6.3,2.9,6.7
		C2.6,7.1,2.6,7.1,2.1,7.2C1.5,7.4,1.1,7.8,1,8.4C0.8,8.9,0.9,8.9,0.5,9.2c-0.4,0.4-0.6,1-0.4,1.6c0.1,0.5,0.1,0.3,0,0.8
		c-0.1,0.6,0,1.2,0.4,1.6c0.4,0.4,0.3,0.3,0.5,0.9c0.2,0.6,0.6,1,1.2,1.2c0.2,0.1,0.3,0.1,0.4,0.1v4c0,0.2,0.1,0.4,0.3,0.5
		C3,20,3.2,20,3.4,19.9L5,19.1l1.6,0.8C6.7,20,6.8,20,6.9,20c0.1,0,0.2,0,0.3-0.1c0.2-0.1,0.3-0.3,0.3-0.5v-3.9
		c0.1,0,0.2-0.1,0.4-0.1c0.6-0.2,1-0.6,1.1-1.2C9.2,13.6,9.1,13.6,9.5,13.2z M6.2,18.4l-1-0.5c-0.2-0.1-0.4-0.1-0.6,0l-1,0.5v-2.2
		c0.3,0.1,0.5,0.1,0.8,0c0.5-0.1,0.4-0.1,1,0c0.3,0.1,0.5,0.1,0.8,0V18.4z M8.7,11.8c0.1,0.3,0.1,0.4-0.2,0.7
		C8.1,12.9,8,13,7.8,13.8c-0.1,0.2-0.2,0.3-0.4,0.3c-0.6,0.2-0.7,0.2-1.2,0.7C6,15,6,15,5.7,15c-0.6-0.2-0.7-0.2-1.4,0
		C4,15,4,15,3.7,14.8c-0.5-0.5-0.6-0.5-1.2-0.7c-0.2,0-0.3-0.1-0.4-0.3C2,13,1.9,12.9,1.5,12.5c-0.3-0.3-0.2-0.3-0.2-0.7
		c0.1-0.5,0.1-0.6,0-1.1c-0.1-0.3-0.1-0.4,0.1-0.7C1.9,9.6,2,9.5,2.1,8.8c0.1-0.3,0.1-0.4,0.4-0.5c0.6-0.2,0.7-0.2,1.2-0.7
		C4,7.5,4,7.5,4.3,7.5c0.6,0.2,0.7,0.2,1.4,0C6,7.5,6,7.5,6.3,7.7c0.5,0.5,0.6,0.5,1.2,0.7c0.3,0.1,0.4,0.1,0.4,0.5
		C8,9.5,8.1,9.6,8.5,10c0.3,0.3,0.2,0.3,0.1,0.7C8.6,11.2,8.6,11.3,8.7,11.8z M19.3,4.9l-4.2-4.2C14.6,0.3,14,0,13.3,0L7.5,0
		C6.1,0,5,1.1,5,2.5l0,1.9C5,4.7,5.3,5,5.6,5s0.6-0.3,0.6-0.6V2.5c0-0.7,0.6-1.2,1.2-1.2h5v4.4c0,1,0.8,1.9,1.9,1.9h4.4v10
		c0,0.7-0.6,1.2-1.2,1.2H9.4c-0.3,0-0.6,0.3-0.6,0.6C8.8,19.7,9,20,9.4,20h8.1c1.4,0,2.5-1.1,2.5-2.5V6.7C20,6,19.7,5.4,19.3,4.9z
		 M14.4,6.2c-0.3,0-0.6-0.3-0.6-0.6V1.3c0.2,0.1,0.3,0.2,0.5,0.3l4.2,4.2c0.1,0.1,0.2,0.3,0.3,0.5H14.4z"/>
</g>
</svg>
