<?xml version="1.0" encoding="utf-8"?>
<!-- Generator: Adobe Illustrator 27.6.0, SVG Export Plug-In . SVG Version: 6.00 Build 0)  -->
<svg version="1.1" id="Layer_1" xmlns="http://www.w3.org/2000/svg" xmlns:xlink="http://www.w3.org/1999/xlink" x="0px" y="0px"
	 viewBox="0 0 20 20" style="enable-background:new 0 0 20 20;" xml:space="preserve">
<style type="text/css">
	.st0{fill:#F2E4FF;}
</style>
<path class="st0" d="M17.5,1.1c-0.2,0-0.5,0.1-0.7,0.2c-1.8,0.8-3,1.1-4.1,1.1c-2.3,0-3.6-1.2-6.3-1.2c-1.1,0-2.4,0.2-4.1,0.8V1.7
	c0-0.3-0.3-0.6-0.6-0.6S1.1,1.4,1.1,1.7l0,16.7c0,0.3,0.2,0.6,0.6,0.6s0.6-0.3,0.6-0.6v-3.2c1.5-0.6,2.8-0.8,4-0.8
	c2.8,0,4.8,1.2,7.6,1.2c1.2,0,2.6-0.2,4.3-0.9c0.5-0.2,0.8-0.6,0.8-1.1V2.3C18.9,1.6,18.2,1.1,17.5,1.1z M17.2,2.3
	c0.3-0.1,0.5,0,0.5,0.2v2.1c-1,0.3-1.9,0.5-2.8,0.6V3.1C15.7,2.9,16.4,2.6,17.2,2.3z M17.8,7.6c-1,0.3-1.9,0.5-2.8,0.6V6.3
	c0.8-0.1,1.7-0.3,2.8-0.6L17.8,7.6L17.8,7.6z M17.8,10.7c-1,0.3-1.9,0.5-2.8,0.6V9.4c0.8-0.1,1.7-0.3,2.8-0.6L17.8,10.7L17.8,10.7z
	 M13.9,8.3c-1.2,0-2.3-0.2-3.3-0.4V6c1,0.2,2.1,0.4,3.3,0.4V8.3z M9.4,7.6c-1-0.2-2.1-0.4-3.3-0.4V5.3c1.2,0,2.3,0.2,3.3,0.4V7.6z
	 M9.4,8.8v1.9c-1-0.2-2.1-0.4-3.3-0.4V8.4C7.3,8.3,8.4,8.5,9.4,8.8z M10.6,9c1,0.2,2.1,0.4,3.3,0.4v1.9c-1.2,0-2.3-0.2-3.3-0.4V9z
	 M13.9,3.3v1.9c-1.2,0-2.3-0.2-3.3-0.4V3.1c0.6,0.2,1.3,0.3,2.1,0.3C13,3.4,13.5,3.4,13.9,3.3z M9.4,2.8v1.7c-1-0.2-2.1-0.4-3.3-0.4
	V2.2c0.1,0,0.2,0,0.2,0C7.6,2.2,8.5,2.5,9.4,2.8z M2.2,13.9V3.1c1-0.4,1.9-0.6,2.8-0.7v1.9C4.2,4.3,3.3,4.5,2.2,4.8V6
	c1-0.3,2-0.5,2.8-0.6v1.9C4.2,7.4,3.3,7.6,2.2,7.9V9c1-0.3,2-0.5,2.8-0.6v1.9c-0.8,0.1-1.7,0.3-2.8,0.6v1.2c1-0.3,2-0.5,2.8-0.6v1.9
	C4.1,13.4,3.2,13.6,2.2,13.9z M6.2,13.2C6.2,13.2,6.1,13.3,6.2,13.2l-0.1-1.9c1.2,0,2.3,0.2,3.3,0.4v1.9C8.5,13.4,7.4,13.2,6.2,13.2
	z M13.8,14.4c-1.2,0-2.2-0.2-3.2-0.5v-1.9c1,0.2,2.1,0.4,3.3,0.4L13.8,14.4C13.9,14.4,13.8,14.4,13.8,14.4z M17.8,13.6
	c0,0.1-1.3,0.6-2.8,0.8v-1.9c0.8-0.1,1.7-0.3,2.8-0.6L17.8,13.6L17.8,13.6z"/>
</svg>
