<?xml version="1.0" encoding="utf-8"?>
<!-- Generator: Adobe Illustrator 27.6.0, SVG Export Plug-In . SVG Version: 6.00 Build 0)  -->
<svg version="1.1" id="Layer_1" xmlns="http://www.w3.org/2000/svg" xmlns:xlink="http://www.w3.org/1999/xlink" x="0px" y="0px"
	 viewBox="0 0 20 20" style="enable-background:new 0 0 20 20;" xml:space="preserve">
<style type="text/css">
	.st0{fill:#7843A5;}
</style>
<path class="st0" d="M10,12c1.8,0,3.2-1.5,3.2-3.2S11.8,5.5,10,5.5C8.2,5.5,6.8,7,6.8,8.8C6.7,10.5,8.2,12,10,12z M10,6.5
	c1.2,0,2.2,1,2.2,2.2S11.2,11,10,11c-1.2,0-2.2-1-2.2-2.2S8.8,6.5,10,6.5z M11.6,13H8.4C6,13,4,14.9,4,17.2C4,17.6,4.4,18,4.9,18
	h10.2c0.5,0,0.9-0.4,0.9-0.8C16,14.9,14,13,11.6,13z M5,17c0.1-1.7,1.6-3,3.4-3h3.1c1.8,0,3.3,1.3,3.4,3H5z M16,7
	c1.4,0,2.5-1.1,2.5-2.5S17.4,2,16,2c-1.4,0-2.5,1.1-2.5,2.5S14.6,7,16,7z M16,3c0.8,0,1.5,0.7,1.5,1.5S16.8,6,16,6s-1.5-0.7-1.5-1.5
	S15.2,3,16,3z M4,7c1.4,0,2.5-1.1,2.5-2.5S5.4,2,4,2C2.6,2,1.5,3.1,1.5,4.5S2.6,7,4,7z M4,3c0.8,0,1.5,0.7,1.5,1.5S4.8,6,4,6
	S2.5,5.3,2.5,4.5S3.2,3,4,3z M17.5,8h-2c-0.3,0-0.7,0.1-1,0.2c-0.2,0.1-0.4,0.4-0.2,0.7c0.1,0.2,0.4,0.4,0.7,0.2
	C15.1,9,15.3,9,15.5,9h2c0.8,0,1.5,0.7,1.5,1.6V11c0,0.3,0.2,0.5,0.5,0.5S20,11.3,20,11v-0.4C20,9.2,18.9,8,17.5,8z M5.1,9.1
	c0.2,0.1,0.5,0,0.7-0.2c0.1-0.2,0-0.5-0.2-0.7C5.2,8.1,4.8,8,4.5,8h-2C1.1,8,0,9.2,0,10.6V11c0,0.3,0.2,0.5,0.5,0.5S1,11.3,1,11
	v-0.4C1,9.7,1.7,9,2.5,9h2C4.7,9,4.9,9,5.1,9.1z"/>
</svg>
