<?xml version="1.0" encoding="utf-8"?>
<!-- Generator: Adobe Illustrator 27.6.0, SVG Export Plug-In . SVG Version: 6.00 Build 0)  -->
<svg version="1.1" id="Layer_1" xmlns="http://www.w3.org/2000/svg" xmlns:xlink="http://www.w3.org/1999/xlink" x="0px" y="0px"
	 viewBox="0 0 20 20" style="enable-background:new 0 0 20 20;" xml:space="preserve">
<style type="text/css">
	.st0{fill:#7843A5;}
</style>
<path class="st0" d="M18.7,18.4c-0.5-2-2.3-3.4-4.4-3.4H5.7c-2.1,0-3.9,1.4-4.4,3.4C1.1,19.2,1.7,20,2.5,20h15
	C18.3,20,18.9,19.2,18.7,18.4z M2.5,18.7c0.4-1.4,1.7-2.5,3.2-2.5h8.6c1.5,0,2.8,1,3.2,2.5L2.5,18.7z M13.8,8.8
	c0,2.1-1.7,3.8-3.8,3.8c-2.1,0-3.7-1.7-3.7-3.8c0-0.3-0.3-0.6-0.6-0.6S5.1,8.4,5.1,8.8c0,2.8,2.2,5,5,5c2.8,0,5-2.2,5-5
	c0-0.3-0.3-0.6-0.6-0.6C14.1,8.1,13.8,8.4,13.8,8.8z M4.4,6.9h11.3c0.3,0,0.6-0.3,0.6-0.6c0-0.3-0.3-0.6-0.6-0.6l-0.6,0c0,0,0,0,0,0
	c0-2.5-1.9-4.6-4.4-4.9V0.6C10.7,0.3,10.4,0,10,0C9.7,0,9.4,0.3,9.4,0.6v0.1C6.9,1,5,3.1,5,5.6c0,0,0,0,0,0l-0.6,0
	C4,5.6,3.8,5.9,3.8,6.2S4,6.9,4.4,6.9z M10.7,1.9c1.8,0.3,3.1,1.8,3.1,3.7c0,0,0,0,0,0l-3.1,0V1.9z M6.3,5.6c0-1.9,1.4-3.4,3.1-3.7
	v3.7L6.3,5.6z"/>
</svg>
