<svg width="671" height="112" viewBox="0 0 671 112" fill="none" xmlns="http://www.w3.org/2000/svg">
<path d="M642.543 62.2187C634.903 62.2187 630.443 65.7967 629.303 74.3567H654.763C654.253 66.3077 650.313 62.2187 642.543 62.2187ZM642.793 111.665C624.593 111.665 611.863 101.188 611.863 81.0007C611.863 60.0467 623.443 47.7817 643.053 47.7817C661.643 47.7817 670.683 59.6637 670.683 76.1457C670.683 78.8287 670.683 80.8727 670.423 84.1947H629.173C630.323 92.8837 634.903 96.7167 643.053 96.7167C651.073 96.7167 653.743 92.7557 655.143 88.0277L670.173 92.2447C667.243 103.233 659.353 111.665 642.793 111.665Z" fill="#2D174F"/>
<path d="M604.683 31.6807V110.002H587.233V31.6807H604.683Z" fill="#2D174F"/>
<path d="M550.203 96.0757C558.863 96.0757 562.813 89.9427 562.813 79.4657C562.813 69.3717 558.993 63.4947 550.203 63.4947C542.183 63.4947 537.473 68.9887 537.473 78.9547V80.1047C537.473 89.9427 542.183 96.0757 550.203 96.0757ZM537.473 31.6807V65.7947H537.733C540.653 53.0177 547.533 47.7797 557.973 47.7797C572.483 47.7797 580.003 59.6617 580.003 79.3377C580.003 99.7807 572.233 111.791 557.593 111.791C547.153 111.791 540.653 106.425 537.733 93.6477H537.473V110.002H520.033V31.6807H537.473Z" fill="#2D174F"/>
<path d="M482.503 97.2286C489.893 97.2286 494.733 92.8846 494.733 86.7516V84.9626H481.743C476.653 84.9626 473.593 87.2626 473.593 90.5845C473.593 94.2895 475.883 97.2286 482.503 97.2286ZM494.733 110.006V95.1846H494.473C491.803 105.534 485.183 111.283 474.993 111.283C464.553 111.283 456.663 105.534 456.663 93.6506C456.663 82.6626 463.153 75.1246 479.063 75.1246H494.733V72.5696C494.733 66.0536 491.923 62.4756 485.303 62.4756C479.573 62.4756 475.883 65.0316 474.743 72.0586L458.443 69.7586C459.973 57.1096 467.353 48.0386 486.073 48.0386C504.403 48.0386 512.043 56.9816 512.043 72.4416V110.006H494.733Z" fill="#2D174F"/>
<path d="M419.193 90.9665V64.0085H412.193V49.4425H419.193V34.2385H436.513V49.4425H452.423V64.0085H436.513V87.6445C436.513 92.5005 438.293 94.7995 443.513 94.7995C446.193 94.7995 449.243 93.9055 451.413 93.3945L453.323 109.494C448.733 110.899 445.683 111.793 439.063 111.793C425.053 111.793 419.193 102.466 419.193 90.9665Z" fill="#2D174F"/>
<path d="M367.983 74.4847V110.004H350.533V49.4427H367.983V66.4357H368.113C370.913 52.5087 378.163 47.7817 387.843 47.7817C400.953 47.7817 406.433 56.4697 406.433 69.5017V110.004H389.113V74.4847C389.113 68.2247 386.313 63.4967 379.053 63.4967C372.053 63.4967 367.983 67.5857 367.983 74.4847Z" fill="#2D174F"/>
<path d="M323.643 110.001V93.1355H323.383C320.587 106.934 313.457 111.789 303.78 111.789C290.666 111.789 285.064 103.101 285.064 89.9415V49.4395H302.507V84.9585C302.507 91.2195 305.308 96.0745 312.566 96.0745C319.568 96.0745 323.643 91.9854 323.643 84.9585V49.4395H340.963V110.001H323.643Z" fill="#2D174F"/>
<path d="M247.152 111.793C227.672 111.793 215.831 99.6547 215.831 79.7237C215.831 59.5357 228.054 47.7817 247.152 47.7817C266.123 47.7817 278.346 59.5357 278.346 79.7237C278.346 99.6547 266.505 111.793 247.152 111.793ZM247.152 63.6247C238.239 63.6247 233.274 69.8847 233.274 79.5957C233.274 89.4337 238.112 95.8217 247.025 95.8217C256.064 95.8217 261.03 89.4337 261.03 79.5957C261.03 69.8847 255.937 63.6247 247.152 63.6247Z" fill="#2D174F"/>
<path d="M194.043 75.7627C192.642 68.7357 189.204 63.6247 181.438 63.6247C173.672 63.6247 168.069 68.4797 168.069 79.5957C168.069 90.4557 173.416 95.8217 181.565 95.8217C189.586 95.8217 192.642 90.3277 194.17 82.6617L210.849 85.8557C208.812 101.7 200.027 111.793 181.947 111.793C162.849 111.793 150.244 101.061 150.244 80.1067C150.244 59.6637 162.594 47.7817 181.565 47.7817C200.536 47.7817 208.43 57.1087 210.849 73.3347L194.043 75.7627Z" fill="#2D174F"/>
<path d="M128.459 75.7627C127.058 68.7357 123.62 63.6247 115.854 63.6247C108.088 63.6247 102.485 68.4797 102.485 79.5957C102.485 90.4557 107.832 95.8217 115.981 95.8217C124.002 95.8217 127.058 90.3277 128.586 82.6617L145.265 85.8557C143.228 101.7 134.443 111.793 116.363 111.793C97.2652 111.793 84.6602 101.061 84.6602 80.1067C84.6602 59.6637 97.0102 47.7817 115.981 47.7817C134.952 47.7817 142.846 57.1087 145.265 73.3347L128.459 75.7627Z" fill="#2D174F"/>
<path d="M60.0493 41.5622C57.5909 34.8138 51.1677 30.4902 44.2783 30.4902C37.389 30.4902 30.9658 34.8138 28.5074 41.5622L3.91907 109.056C3.75186 109.515 4.09204 110 4.58083 110H20.512C21.0533 110 21.5369 109.662 21.722 109.154L27.2064 94.099C27.3915 93.5908 27.875 93.2525 28.4164 93.2525H60.1402C60.6815 93.2525 61.1651 93.5908 61.3502 94.099L66.8346 109.154C67.0197 109.662 67.5032 110 68.0446 110H83.9757C84.4645 110 84.8047 109.515 84.6375 109.056L60.0493 41.5622ZM33.9601 75.5609L43.435 49.5526C43.7215 48.7659 44.8352 48.7659 45.1217 49.5526L54.5966 75.5609C54.7638 76.0198 54.4237 76.5052 53.9349 76.5052H34.622C34.1332 76.5052 33.7929 76.0198 33.9601 75.5609Z" fill="#281547"/>
<path d="M27.1231 0.569431C22.0619 2.48168 20.2348 8.63287 22.7276 13.4311C24.5603 16.9589 27.6649 19.3736 30.352 20.9182C32.2573 22.0134 34.1019 23.0804 35.0802 23.647C35.4599 23.8669 35.9365 23.6936 36.0859 23.2812C36.4709 22.2188 37.1973 20.217 37.9523 18.1544C39.1779 14.8057 40.0854 10.2188 38.4625 5.76407C36.7942 1.18456 31.6994 -1.15958 27.1231 0.569431Z" fill="#281547"/>
<path d="M1.06002 22.5263C-1.58604 27.2404 0.971142 33.1243 5.96661 35.1987C9.6394 36.7238 13.5702 36.58 16.6218 36.0376C18.7853 35.6531 20.8841 35.2859 21.9979 35.0919C22.4302 35.0164 22.6839 34.5776 22.533 34.1659C22.1446 33.105 21.4132 31.1055 20.6648 29.0415C19.4495 25.69 17.194 21.5944 13.0858 19.2247C8.86227 16.7885 3.45254 18.264 1.06002 22.5263Z" fill="#281547"/>
<path d="M61.217 0.492929C56.1095 -1.29238 50.7525 2.24615 49.575 7.5227C48.7093 11.4021 49.5339 15.2456 50.5986 18.1546C51.3535 20.217 52.0801 22.219 52.4649 23.2813C52.6143 23.6936 53.0909 23.8669 53.4706 23.647C54.4489 23.0805 56.2935 22.0134 58.1988 20.9183C61.292 19.1401 64.9383 16.2091 66.5612 11.7545C68.2295 7.17481 65.8349 2.10725 61.217 0.492929Z" fill="#281547"/>
<path d="M87.3786 22.332C84.6153 17.6855 78.2363 16.956 73.9405 20.2412C70.782 22.6565 68.9414 26.1295 67.8857 29.0411C67.1371 31.1052 66.4059 33.1048 66.0174 34.1656C65.8666 34.5774 66.1202 35.0162 66.5525 35.0916C67.6663 35.2858 69.7653 35.653 71.9288 36.0375C75.4417 36.6618 80.1195 36.758 84.2278 34.3883C88.4514 31.9521 89.877 26.5334 87.3786 22.332Z" fill="#281547"/>
</svg>
