<svg id="Group_11642" data-name="Group 11642" xmlns="http://www.w3.org/2000/svg" width="240.539" height="104.997" viewBox="0 0 240.539 104.997">
  <g id="Group_11641" data-name="Group 11641">
    <path id="Path_12689" data-name="Path 12689" d="M83.4,99.7,23.61,104.913A21.723,21.723,0,0,1,0,83.273V21.723A21.723,21.723,0,0,1,21.723,0H97.214a21.722,21.722,0,0,1,20.924,27.556L102.433,83.892A21.723,21.723,0,0,1,83.4,99.7" fill="#00c8cd"/>
    <path id="Union_2" data-name="Union 2" d="M15669.342-369.74v-3.209c0-2.961,1.639-4.58,4.6-4.58s4.607,1.618,4.607,4.58v1.981a.5.5,0,0,1-.556.551h-6.028v.484c0,1.9.771,2.7,2.508,2.7a3.25,3.25,0,0,0,2.17-.823c.287-.24.556-.24.771.075l.65.941a.523.523,0,0,1-.095.768,5.33,5.33,0,0,1-3.591,1.3C15671.079-364.967,15669.342-366.534,15669.342-369.74Zm2.627-3.016v.362h4.075v-.362c0-1.685-.649-2.5-2.023-2.5S15671.969-374.441,15671.969-372.756Zm-22.229,3.016v-3.209c0-2.961,1.638-4.58,4.6-4.58s4.6,1.618,4.6,4.58v1.981a.494.494,0,0,1-.551.551h-6.029v.484c0,1.9.772,2.7,2.509,2.7a3.259,3.259,0,0,0,2.17-.823c.287-.24.551-.24.771.075l.649.941a.522.522,0,0,1-.094.768,5.343,5.343,0,0,1-3.6,1.3C15651.473-364.967,15649.74-366.534,15649.74-369.74Zm2.626-3.016v.362h4.076v-.362c0-1.685-.654-2.5-2.028-2.5S15652.366-374.441,15652.366-372.756Zm-14.416,3.209v-3.4c0-2.961,1.493-4.58,4.218-4.58a3.242,3.242,0,0,1,2.484.941h.048v-4.989a.5.5,0,0,1,.555-.555h1.517a.5.5,0,0,1,.555.555v12.03c0,2.941-1.661,4.58-4.674,4.58C15639.612-364.967,15637.95-366.605,15637.95-369.547Zm2.627-3.209v2.993c0,1.709.673,2.532,2.075,2.532,1.37,0,2.048-.823,2.048-2.532v-2.993c0-1.662-.7-2.5-2.048-2.5C15641.25-375.26,15640.577-374.441,15640.577-372.756Zm-25.848,3.977c0-2.335,1.521-3.662,4.34-3.662h2.24v-.122c0-1.9-.744-2.7-2.409-2.7a3.556,3.556,0,0,0-2.123.772.482.482,0,0,1-.771-.122l-.649-1.012a.507.507,0,0,1,.122-.772,6.051,6.051,0,0,1,3.662-1.134c3.087,0,4.8,1.614,4.8,4.773v3.209c0,2.941-1.666,4.58-4.726,4.58C15616.3-364.967,15614.729-366.318,15614.729-368.779Zm2.627-.071c0,1.063.677,1.614,1.858,1.614,1.445,0,2.095-.819,2.095-2.528v-.725h-1.878C15618.128-370.488,15617.356-369.909,15617.356-368.85Zm-13.719.071c0-2.335,1.52-3.662,4.339-3.662h2.245v-.122c0-1.9-.749-2.7-2.414-2.7a3.556,3.556,0,0,0-2.119.772.482.482,0,0,1-.771-.122l-.653-1.012a.507.507,0,0,1,.122-.772,6.065,6.065,0,0,1,3.666-1.134c3.083,0,4.8,1.614,4.8,4.773v3.209c0,2.941-1.666,4.58-4.726,4.58C15605.205-364.967,15603.638-366.318,15603.638-368.779Zm2.626-.071c0,1.063.678,1.614,1.858,1.614,1.445,0,2.1-.819,2.1-2.528v-.725h-1.883C15607.04-370.488,15606.264-369.909,15606.264-368.85Zm81.546,3.6a.5.5,0,0,1-.555-.555v-7.041c0-1.638-.626-2.41-1.953-2.41-1.347,0-1.977.772-1.977,2.41v7.041a.5.5,0,0,1-.552.555h-1.52a.5.5,0,0,1-.556-.555v-7.21c0-2.941,1.614-4.509,4.6-4.509,2.965,0,4.583,1.567,4.583,4.509v7.21a.5.5,0,0,1-.555.555Zm-26.158,0a.5.5,0,0,1-.555-.555V-373c0-2.965,1.421-4.532,4.193-4.532a5.145,5.145,0,0,1,2.7.677.525.525,0,0,1,.193.744l-.556.988c-.169.339-.409.362-.748.193a2.858,2.858,0,0,0-1.327-.335c-1.229,0-1.831.721-1.831,2.193v7.257a.5.5,0,0,1-.555.555Zm-28.189,0a.5.5,0,0,1-.556-.555v-7.041c0-1.638-.626-2.41-1.953-2.41-1.347,0-1.977.772-1.977,2.41v7.041a.5.5,0,0,1-.551.555h-1.521a.5.5,0,0,1-.555-.555v-7.21c0-2.941,1.614-4.509,4.6-4.509,2.969,0,4.584,1.567,4.584,4.509v7.21a.5.5,0,0,1-.556.555Zm-34.164,0a.557.557,0,0,1-.555-.555v-15.767a.554.554,0,0,1,.555-.555h1.521a.554.554,0,0,1,.551.555v15.767a.554.554,0,0,1-.551.555Zm-9.981,0a.578.578,0,0,1-.627-.457l-4.654-14.924a.435.435,0,0,1,.457-.626h1.906a.581.581,0,0,1,.626.457l3.378,11.478h.048l3.374-11.478a.582.582,0,0,1,.627-.457h1.783a.436.436,0,0,1,.461.626l-4.631,14.924a.58.58,0,0,1-.626.457Zm39.18-22.13a.523.523,0,0,1-.095-.772l.626-.961c.193-.339.457-.362.772-.122a4.061,4.061,0,0,0,2.48.843,2,2,0,0,0,2.244-2.241v-.748h-.051a3.23,3.23,0,0,1-2.48.941c-2.726,0-4.218-1.618-4.218-4.583v-2.938c0-2.945,1.662-4.583,4.7-4.583,3.016,0,4.678,1.638,4.678,4.583v7.446c0,2.725-1.76,4.391-4.726,4.391A6.14,6.14,0,0,1,15628.5-387.388Zm1.906-10.364v2.528c0,1.689.673,2.508,2.071,2.508,1.351,0,2.051-.843,2.051-2.508v-2.528c0-1.713-.677-2.532-2.051-2.532C15631.075-400.284,15630.4-399.465,15630.4-397.753Zm38.747,2.989v-3.205c0-2.965,1.638-4.583,4.6-4.583s4.6,1.618,4.6,4.583v1.977a.5.5,0,0,1-.551.555h-6.029v.48c0,1.9.772,2.7,2.509,2.7a3.253,3.253,0,0,0,2.17-.823c.287-.24.551-.24.771.075l.649.941a.522.522,0,0,1-.095.768,5.339,5.339,0,0,1-3.595,1.3C15670.886-389.991,15669.149-391.559,15669.149-394.764Zm2.626-3.012v.358h4.076v-.358c0-1.689-.654-2.508-2.024-2.508S15671.775-399.465,15671.775-397.776Zm-15.889,3.709V-400h-1.012a.5.5,0,0,1-.556-.555v-1.158a.5.5,0,0,1,.556-.551h1.012v-2.579a.5.5,0,0,1,.556-.555h1.52a.5.5,0,0,1,.552.555v2.579h2.918a.5.5,0,0,1,.555.551v1.158a.5.5,0,0,1-.555.555h-2.918v5.93a1.591,1.591,0,0,0,1.736,1.811,2.812,2.812,0,0,0,.988-.193c.339-.122.6-.051.7.311l.311,1.063a.532.532,0,0,1-.287.721,5,5,0,0,1-2.024.362C15657.237-389.991,15655.887-391.366,15655.887-394.067Zm-10.946,2.8a.545.545,0,0,1-.118-.772l.649-.988a.452.452,0,0,1,.744-.122,4.908,4.908,0,0,0,2.776.917c1.252,0,1.953-.532,1.953-1.449,0-.8-.532-1.181-2.245-1.445-2.819-.433-3.831-1.544-3.831-3.737,0-2.217,1.732-3.69,4.387-3.69a6.59,6.59,0,0,1,3.567.941.521.521,0,0,1,.146.772l-.6.965c-.192.311-.433.339-.748.146a3.843,3.843,0,0,0-2.075-.579c-1.323,0-2.047.5-2.047,1.445,0,.748.508,1.087,2.146,1.327,2.843.41,3.906,1.567,3.906,3.855,0,2.268-1.638,3.69-4.245,3.69A6.469,6.469,0,0,1,15644.94-391.267Zm-28.667-3.3v-3.4c0-2.965,1.662-4.583,4.7-4.583,3.012,0,4.678,1.618,4.678,4.583v3.4c0,2.965-1.666,4.58-4.678,4.58C15617.936-389.991,15616.273-391.606,15616.273-394.571Zm2.627-3.205v2.989c0,1.709.673,2.532,2.075,2.532,1.374,0,2.047-.823,2.047-2.532v-2.989c0-1.689-.673-2.508-2.047-2.508C15619.573-400.284,15618.9-399.465,15618.9-397.776Zm-34.72,3.13a5.552,5.552,0,0,1,2.7-4.725,5.415,5.415,0,0,1-1.135-3.107c0-2.607,1.662-4.1,4.34-4.1a6.311,6.311,0,0,1,3.374.937.505.505,0,0,1,.122.776l-.63,1.059c-.192.311-.456.311-.768.118a3.654,3.654,0,0,0-1.835-.551,1.7,1.7,0,0,0-1.9,1.784,3.561,3.561,0,0,0,1.131,2.339l4.028,4.674a16.327,16.327,0,0,0,.988-2.481.494.494,0,0,1,.673-.386l1.4.362a.486.486,0,0,1,.386.7,15.639,15.639,0,0,1-1.709,3.812l2.142,2.481c.315.362.17.677-.311.677h-2.052a.823.823,0,0,1-.673-.315l-.772-.866a6.23,6.23,0,0,1-4.193,1.469C15586.158-389.991,15584.181-391.775,15584.181-394.646Zm2.749-.118a2.428,2.428,0,0,0,2.748,2.457,3.464,3.464,0,0,0,2.387-1.012l-3.666-4.194A3.365,3.365,0,0,0,15586.93-394.764Zm100.688,4.485a.729.729,0,0,1-.674-.339l-3.713-5.04v4.824a.5.5,0,0,1-.556.555h-1.52a.5.5,0,0,1-.556-.555V-406.6a.5.5,0,0,1,.556-.555h1.52a.5.5,0,0,1,.556.555v9.643l3.591-4.969a.73.73,0,0,1,.674-.335h1.812c.456,0,.6.311.311.673l-3.953,5.135,4.217,5.5c.292.362.146.677-.311.677Zm-23.052,0a.494.494,0,0,1-.551-.555V-401.71a.493.493,0,0,1,.551-.551h1.521a.5.5,0,0,1,.555.551v10.876a.5.5,0,0,1-.555.555Zm-24.063,0a.5.5,0,0,1-.551-.555V-401.71a.494.494,0,0,1,.551-.551h1.521a.5.5,0,0,1,.555.551v10.876a.5.5,0,0,1-.555.555Zm-35.081,0a.494.494,0,0,1-.551-.555v-14.9a.494.494,0,0,1,.551-.555h1.788a.494.494,0,0,1,.551.555v12.947h6.438a.5.5,0,0,1,.556.555v1.4a.5.5,0,0,1-.556.555Zm58.35-15.55a1.5,1.5,0,0,1,1.567-1.544,1.5,1.5,0,0,1,1.566,1.544,1.507,1.507,0,0,1-1.566,1.567A1.507,1.507,0,0,1,15663.771-405.829Zm-24.063,0a1.5,1.5,0,0,1,1.567-1.544,1.5,1.5,0,0,1,1.566,1.544,1.507,1.507,0,0,1-1.566,1.567A1.509,1.509,0,0,1,15639.707-405.829Zm-3.784-5.619a.5.5,0,0,1-.556-.551v-10.994c0-2.941,1.643-4.584,4.679-4.584s4.7,1.642,4.7,4.584v3.4c0,2.965-1.5,4.58-4.217,4.58a3.225,3.225,0,0,1-2.485-.941H15638V-412a.5.5,0,0,1-.556.551Zm2.075-11.329v2.989c0,1.662.7,2.508,2.048,2.508,1.421,0,2.075-.823,2.075-2.508v-2.989c0-1.713-.654-2.532-2.075-2.532C15638.671-425.309,15638-424.49,15638-422.777Zm30.135,3.686v-5.93h-1.012a.494.494,0,0,1-.551-.555v-1.154a.494.494,0,0,1,.551-.555h1.012v-2.579a.5.5,0,0,1,.56-.555h1.516a.5.5,0,0,1,.556.555v2.579h2.918a.5.5,0,0,1,.555.555v1.154a.5.5,0,0,1-.555.555h-2.918v5.93a1.589,1.589,0,0,0,1.736,1.811,2.825,2.825,0,0,0,.988-.193c.339-.122.6-.051.7.311l.315,1.063a.538.538,0,0,1-.292.721,4.989,4.989,0,0,1-2.023.362C15669.483-415.016,15668.133-416.39,15668.133-419.091Zm-21.264-.5v-3.4c0-2.965,1.662-4.584,4.7-4.584,3.013,0,4.678,1.618,4.678,4.584v3.4c0,2.965-1.665,4.58-4.678,4.58C15648.531-415.016,15646.869-416.63,15646.869-419.6Zm2.627-3.205v2.989c0,1.709.677,2.532,2.075,2.532,1.374,0,2.048-.823,2.048-2.532V-422.8c0-1.689-.674-2.508-2.048-2.508C15650.173-425.309,15649.5-424.49,15649.5-422.8Zm-24.614,6.509a.542.542,0,0,1-.122-.772l.653-.988a.452.452,0,0,1,.744-.122,4.887,4.887,0,0,0,2.772.917c1.256,0,1.953-.532,1.953-1.449,0-.8-.532-1.181-2.241-1.445-2.823-.433-3.835-1.544-3.835-3.737,0-2.217,1.736-3.69,4.391-3.69a6.6,6.6,0,0,1,3.567.941.527.527,0,0,1,.146.772l-.606.965c-.188.315-.433.339-.748.146a3.82,3.82,0,0,0-2.071-.579c-1.327,0-2.048.5-2.048,1.445,0,.748.5,1.087,2.146,1.327,2.843.41,3.906,1.567,3.906,3.855,0,2.268-1.642,3.69-4.245,3.69A6.459,6.459,0,0,1,15624.882-416.291Zm-23.075-2.532c0-2.339,1.52-3.666,4.339-3.666h2.241v-.118c0-1.906-.745-2.7-2.41-2.7a3.564,3.564,0,0,0-2.119.772.484.484,0,0,1-.775-.122l-.649-1.012a.507.507,0,0,1,.122-.772,6.053,6.053,0,0,1,3.662-1.134c3.087,0,4.8,1.618,4.8,4.776v3.205c0,2.941-1.666,4.58-4.726,4.58C15603.374-415.016,15601.807-416.366,15601.807-418.823Zm2.626-.071c0,1.059.678,1.614,1.858,1.614,1.445,0,2.1-.819,2.1-2.532v-.725h-1.879C15605.205-420.536,15604.433-419.957,15604.433-418.894Zm54.781,3.591a.5.5,0,0,1-.555-.555v-7.186c0-2.965,1.422-4.532,4.2-4.532a5.168,5.168,0,0,1,2.7.677.523.523,0,0,1,.193.748l-.552.984c-.169.339-.413.362-.748.2a2.815,2.815,0,0,0-1.327-.339c-1.229,0-1.831.725-1.831,2.193v7.257a.5.5,0,0,1-.555.555Zm-38.672,0a.5.5,0,0,1-.556-.555V-422.9c0-1.638-.63-2.41-1.953-2.41-1.351,0-1.98.772-1.98,2.41v7.041a.494.494,0,0,1-.551.555h-1.521a.5.5,0,0,1-.555-.555v-7.21c0-2.941,1.614-4.509,4.606-4.509,2.966,0,4.58,1.567,4.58,4.509v7.21a.5.5,0,0,1-.556.555Zm-26.209,0a.5.5,0,0,1-.556-.555v-7.186c0-2.965,1.422-4.532,4.193-4.532a5.172,5.172,0,0,1,2.7.677.526.526,0,0,1,.193.748l-.556.984c-.169.339-.409.362-.748.2a2.8,2.8,0,0,0-1.322-.339c-1.233,0-1.836.725-1.836,2.193v7.257a.5.5,0,0,1-.555.555Zm-7.187,0a.5.5,0,0,1-.556-.555v-12.947H15583a.5.5,0,0,1-.556-.555v-1.4a.5.5,0,0,1,.556-.555h10.124a.5.5,0,0,1,.555.555v1.4a.5.5,0,0,1-.555.555h-3.639v12.947a.5.5,0,0,1-.556.555Z" transform="translate(-15450 451)" fill="#002e58" stroke="rgba(0,0,0,0)" stroke-miterlimit="10" stroke-width="1"/>
    <path id="Path_12718" data-name="Path 12718" d="M85.745,40.56c-4.375,0-5.516-.329-6.46-1.116-.967-.97-1.05-1.119-1.238-6.332V20.524H68.31v12.6c.048,6.9.683,9.906,4.152,13.022l.074.062c2.936,2.267,5.362,2.946,11.121,2.946q.639,0,1.334-.011H93.17V40.56Z" fill="#002e59"/>
    <path id="Path_12719" data-name="Path 12719" d="M61.675,72.49c-3.093,3.093-4.134,3.668-5.356,3.779-1.371,0-1.535-.049-5.354-3.6L40.914,62.615,34.028,69.5,44.086,79.558C49,84.4,51.574,86.08,56.231,85.83l.1-.008c3.68-.474,5.876-1.708,9.947-5.78.3-.3.613-.618.936-.952l10.4-10.4-6.068-6.067Z" fill="#002e59"/>
    <rect id="Rectangle_2141" data-name="Rectangle 2141" width="16.321" height="8.58" transform="translate(39.093 20.536)" fill="#002e59"/>
    <path id="Path_12720" data-name="Path 12720" d="M32.787,23.533l-.074-.062C29.559,21.037,27,20.428,20.258,20.536H11.366v8.58H19.5c4.374,0,5.516.33,6.46,1.116.967.97,1.05,1.119,1.238,6.332V49.151h9.736v-12.6c-.048-6.9-.681-9.907-4.151-13.022" fill="#002e59"/>
  </g>
</svg>
